<?xml version="1.0" encoding="UTF-8" standalone="no"?>
<!-- Created with Inkscape (http://www.inkscape.org/) -->

<svg
   xmlns:dc="http://purl.org/dc/elements/1.1/"
   xmlns:cc="http://creativecommons.org/ns#"
   xmlns:rdf="http://www.w3.org/1999/02/22-rdf-syntax-ns#"
   xmlns:svg="http://www.w3.org/2000/svg"
   xmlns="http://www.w3.org/2000/svg"
   xmlns:sodipodi="http://sodipodi.sourceforge.net/DTD/sodipodi-0.dtd"
   xmlns:inkscape="http://www.inkscape.org/namespaces/inkscape"
   width="32"
   height="32"
   viewBox="0 0 31.999999 31.999999"
   id="svg2"
   version="1.1"
   inkscape:version="0.91 r13725"
   sodipodi:docname="Sequoyah.svg">
  <defs
     id="defs4" />
  <sodipodi:namedview
     id="base"
     pagecolor="#ffffff"
     bordercolor="#666666"
     borderopacity="1.0"
     inkscape:pageopacity="0.0"
     inkscape:pageshadow="2"
     inkscape:zoom="1"
     inkscape:cx="25.157464"
     inkscape:cy="11.260267"
     inkscape:document-units="px"
     inkscape:current-layer="layer1"
     showgrid="false"
     units="px"
     inkscape:window-width="1920"
     inkscape:window-height="1137"
     inkscape:window-x="-8"
     inkscape:window-y="-8"
     inkscape:window-maximized="1" />
  <metadata
     id="metadata7">
    <rdf:RDF>
      <cc:Work
         rdf:about="">
        <dc:format>image/svg+xml</dc:format>
        <dc:type
           rdf:resource="http://purl.org/dc/dcmitype/StillImage" />
        <dc:title></dc:title>
      </cc:Work>
    </rdf:RDF>
  </metadata>
  <g
     inkscape:label="Layer 1"
     inkscape:groupmode="layer"
     id="layer1"
     transform="translate(0,-1020.3622)">
    <path
       inkscape:connector-curvature="0"
       id="path4145"
       style="font-style:normal;font-variant:normal;font-weight:bold;font-stretch:normal;font-size:43.76438904px;line-height:125%;font-family:Roboto;-inkscape-font-specification:'Roboto Bold';letter-spacing:0px;word-spacing:0px;fill:#cc4433;fill-opacity:1;stroke:none;stroke-width:1px;stroke-linecap:butt;stroke-linejoin:miter;stroke-opacity:1"
       d="m 21.463393,1043.6466 q 0,-1.773 -1.239857,-2.7984 -1.239858,-1.0253 -4.425008,-1.9866 -5.36559,-1.6021 -8.1445803,-3.8024 -2.7789906,-2.2216 -2.7789906,-6.024 0,-3.8238 3.0996433,-6.2377 3.1210196,-2.4353 7.9949426,-2.4353 5.173198,0 8.315594,2.6062 3.163774,2.6061 3.05689,6.8358 l -0.04276,0.1282 -6.028271,0 q 0,-2.3285 -1.432249,-3.5675 -1.410873,-1.2603 -3.954718,-1.2603 -2.3087,0 -3.548557,1.1108 -1.21848,1.1108 -1.21848,2.8411 0,1.5808 1.346741,2.6062 1.368119,1.0039 4.702907,2.1361 5.173198,1.4526 7.866681,3.7384 2.693484,2.2643 2.693484,6.0667 0,4.016 -3.142398,6.3872 -3.142397,2.3712 -8.251464,2.3712 -5.002183,0 -8.6148708,-2.4993 -3.5913109,-2.4995 -3.4844266,-7.4553 l 0.042754,-0.1283 6.0496474,0 q 0,2.7558 1.603264,4.0588 1.624641,1.303 4.403632,1.303 2.501091,0 3.805079,-1.1108 1.325365,-1.1108 1.325365,-2.8838 z" />
    <text
       xml:space="preserve"
       style="font-style:normal;font-variant:normal;font-weight:normal;font-stretch:normal;font-size:22px;line-height:125%;font-family:Arial;-inkscape-font-specification:Sans;letter-spacing:0px;word-spacing:0px;fill:#000000;fill-opacity:1;stroke:none;stroke-width:1px;stroke-linecap:butt;stroke-linejoin:miter;stroke-opacity:1"
       x="35.375"
       y="1034.9872"
       id="text4140"
       sodipodi:linespacing="125%"><tspan
         sodipodi:role="line"
         id="tspan4142"
         x="35.375"
         y="1034.9872"></tspan></text>
  </g>
</svg>
